# AST/ASF file generated using VICON BodyLanguage
# -----------------------------------------------
:version 1.10
:name VICON
:units
  mass 1.0
  length 0.45
  angle deg
:documentation
   .ast/.asf automatically generated from VICON data using
   VICON BodyBuilder and BodyLanguage model FoxedUp or BRILLIANT.MOD
:root
   order TX TY TZ RX RY RZ
   axis XYZ
   position 0 0 0  
   orientation 0 -0 0 
:bonedata
  begin
     id 1 
     name lhipjoint
     direction 0.515797 -0.759363 0.396637 
     length 2.47888 
     axis 0 -0 0  XYZ
  end
  begin
     id 2 
     name lfemur
     direction 0.34202 -0.939693 0  
     length 6.81885  
     axis 0 -0 20  XYZ
    dof rx ry rz
    limits (-160.0 20.0)
           (-70.0 70.0)
           (-60.0 70.0)
  end
  begin
     id 3 
     name ltibia
     direction 0.342037 -0.939687 0   
     length 7.89258   
     axis 0 -0 20   XYZ
    dof rx
    limits (-10.0 170.0)
  end
  begin
     id 4 
     name lfoot
     direction 0.173497 -0.476678 0.861787   
     length 2.51543   
     axis -90 -1.13533e-015 20   XYZ
    dof rx rz
    limits (-45.0 90.0)
           (-70.0 20.0)
  end
  begin
     id 5 
     name ltoes
     direction 1.53564e-011 -4.21897e-011 1   
     length 1.21388   
     axis -90 -1.13533e-015 20   XYZ
    dof rx
    limits (-90.0 20.0)
  end
  begin
     id 6 
     name rhipjoint
     direction -0.489454 -0.772941 0.403729   
     length 2.43534  
     axis 0 -0 0  XYZ 
  end
  begin
     id 7 
     name rfemur
     direction -0.34202 -0.939693 0   
     length 7.10357   
     axis 0 -0 -20   XYZ
    dof rx ry rz
    limits (-160.0 20.0)
           (-70.0 70.0)
           (-70.0 60.0)
  end
  begin
     id 8 
     name rtibia
     direction -0.34202 -0.939693 0   
     length 9.16127   
     axis 0 -0 -20   XYZ
    dof rx
    limits (-10.0 170.0)
 end
 begin
     id 9 
     name rfoot
     direction -0.270974 -0.748671 0.605033   
     length 1.74894  
     axis -90 1.13533e-015 -20   XYZ
    dof rx rz
    limits (-45.0 90.0)
           (-20.0 70.0)
  end
  begin
     id 10 
     name rtoes
     direction -1.53557e-011 -4.21759e-011 1   
     length 0.787585   
     axis -90 1.13533e-015 -20   XYZ
    dof rx
    limits (-90.0 20.0)
  end
  begin
     id 11 
     name lowerback
     direction -0.0140249 0.999561 0.0260968   
     length 2.16963   
     axis 0 -0 0   XYZ
    dof rx ry rz
    limits (-20.0 45.0)
           (-30.0 30.0)
           (-30.0 30.0)
  end
  begin
     id 12 
     name upperback
     direction 0.00860018 0.999959 -0.002711   
     length 2.1726   
     axis 0 -0 0   XYZ
    dof rx ry rz
    limits (-20.0 45.0)
           (-30.0 30.0)
           (-30.0 30.0)
  end
  begin
     id 13 
     name thorax
     direction 0.015211 0.999782 -0.0143191   
     length 2.17061   
     axis 0 -0 0   XYZ
    dof rx ry rz
    limits (-20.0 45.0)
           (-30.0 30.0)
           (-30.0 30.0)
  end
  begin
     id 14 
     name lowerneck
     direction -0.0140143 0.999447 0.030145   
     length 2.26749   
     axis 0 -0 0   XYZ
    dof rx ry rz
    limits (-20.0 45.0)
           (-30.0 30.0)
           (-30.0 30.0)
  end
  begin
     id 15 
     name upperneck
     direction 0.118062 0.961438 -0.248392   
     length 2.22728   
     axis 0 -0 0   XYZ
    dof rx ry rz
    limits (-20.0 45.0)
           (-30.0 30.0)
           (-30.0 30.0)
  end
  begin
     id 16
     name head
     direction 0.0431885 0.9954 -0.085514  
     length 2.28786  
     axis 0 -0 0   XYZ
    dof rx ry rz
    limits (-20.0 45.0)
           (-30.0 30.0)
           (-30.0 30.0)
  end
  begin
     id 17 
     name lclavicle
     direction 0.912126 0.409548 0.0172323  
     length 4.31571  
     axis 0 -0 0   XYZ
    dof ry rz
    limits (-20.0 10.0)
           (0.0 20.0)
  end
  begin
     id 18 
     name lhumerus
     direction 1 -4.48977e-011 1.93091e-027   
     length 5.13658   
     axis 180 -30 -90   XYZ
    dof rx ry rz
    limits (-60.0 90.0)
           (-90.0 90.0)
           (-90.0 90.0)
  end
  begin
     id 19
     name lradius
     direction 1 -4.48916e-011 6.84018e-027   
     length 3.22473   
     axis 180 -30 -90   XYZ
    dof rx
    limits (-10.0 170.0)
  end
  begin
     id 20
     name lwrist
     direction 1 -4.48987e-011 7.01981e-027   
     length 1.61236   
     axis -4.37994e-015 90 90   XYZ
    dof ry
    limits (-180.0 0.0)
 end
  begin
     id 21 
     name lhand
     direction 1 -4.49037e-011 1.40335e-026   
     length 0.936406   
     axis -8.96029e-015 90 90   XYZ
    dof rx rz
    limits (-90.0 90.0)
           (-45.0 45.0)
  end
  begin
     id 22 
     name lfingers
     direction 1 -4.48886e-011 2.8104e-026   
     length 0.754955   
     axis -1.79203e-014 90 90   XYZ
    dof rx
    limits (0.0 90.0)
  end
  begin
     id 23
     name lthumb
     direction 0.707107 -6.34937e-011 0.707107   
     length 1.08397   
     axis -90 45 -4.48555e-014   XYZ
    dof rx rz
    limits (-45.0 45.0)
           (-45.0 45.0)
  end
  begin
     id 24 
     name rclavicle
     direction -0.947962 0.317997 0.0156638   
     length 4.86918  
     axis 0 -0 0   XYZ 
    dof ry rz
    limits (-10.0 20.0)
           (-20.0 0.0)
  end
  begin
     id 25 
     name rhumerus
     direction -1 -4.48951e-011 2.80534e-018  
     length 5.60911   
     axis 180 30 90   XYZ
    dof rx ry rz
    limits (-90.0 60.0)
           (-90.0 90.0)
           (-90.0 90.0)
  end
  begin
     id 26 
     name rradius
     direction -1 -4.4898e-011 2.11315e-027   
     length 3.38704   
     axis 180 30 90   XYZ
    dof rx
    limits (-10.0 170.0)
  end
  begin
     id 27 
     name rwrist
     direction -1 -4.48933e-011 7.02314e-027   
     length 1.69352   
     axis -4.37994e-015 -90 -90   XYZ
    dof ry
    limits (-180.0 0.0)
  end
  begin
     id 28
     name rhand
     direction -1 -4.48937e-011 1.40458e-026   
     length 0.755878   
     axis -8.96029e-015 -90 -90   XYZ
    dof rx rz
    limits (-90.0 90.0)
           (-45.0 45.0)
  end
  begin
     id 29
     name rfingers
     direction -1 -4.4901e-011 2.80737e-026   
     length 0.609409   
     axis -1.79203e-014 -90 -90   XYZ
    dof rx
    limits (0.0 90.0)
  end
  begin
     id 30
     name rthumb
     direction -0.707107 -6.34968e-011 0.707107   
     length 0.874992   
     axis -90 -45 4.48555e-014   XYZ
    dof rx rz
    limits (-45.0 45.0)
           (-45.0 45.0)
  end
:hierarchy
  begin
    root lhipjoint rhipjoint lowerback
    lhipjoint lfemur
    lfemur ltibia
    ltibia lfoot
    lfoot ltoes
    rhipjoint rfemur
    rfemur rtibia
    rtibia rfoot
    rfoot rtoes
    lowerback upperback
    upperback thorax
    thorax lowerneck lclavicle rclavicle
    lowerneck upperneck
    upperneck head
    lclavicle lhumerus
    lhumerus lradius
    lradius lwrist
    lwrist lhand lthumb
    lhand lfingers
    rclavicle rhumerus
    rhumerus rradius
    rradius rwrist
    rwrist rhand rthumb
    rhand rfingers
  end

#!OML:ASF C:\ViconDB\ViconDB\414\Spring2016\041811\Spring2016.ASF
:FULLY-SPECIFIED
:DEGREES
108
root 6.70132 18.2861 -6.57486 -177.122 -7.29331 179.864
lowerback -1.09678 1.13321 -3.49617
upperback 1.68221 1.56428 0.267665
thorax 2.24213 0.709423 2.27973
lowerneck -13.5364 -0.0809739 -7.06242
upperneck 24.7451 -2.55834 11.0409
head 10.3199 -1.05825 4.75723
rclavicle 4.18069e-014 -5.96354e-016
rhumerus -42.9931 -10.7489 -86.4127
rradius 46.4815
rwrist 26.6971
rhand -35.8205 -15.2955
rfingers 7.12502
rthumb -8.93658 -45.0862
lclavicle 4.18069e-014 -5.96354e-016
lhumerus -39.0365 -3.55441 88.6984
lradius 33.8563
lwrist -23.9728
lhand -37.4682 18.5668
lfingers 7.12502
lthumb -10.5263 48.2832
rfemur -0.460591 -14.1052 19.6788
rtibia 13.5192
rfoot -11.8035 -3.27979
rtoes -12.0757
lfemur -8.70715 -9.69312 -16.8038
ltibia 23.6257
lfoot -21.2248 8.57828
ltoes -10.2605
109
root 6.70917 18.286 -6.56382 -177.07 -7.30738 179.953
lowerback -0.765872 1.09834 -3.47767
upperback 1.71617 1.50175 0.310064
thorax 2.09425 0.679463 2.30425
lowerneck -13.51 -0.159021 -7.21621
upperneck 24.5669 -2.62552 11.134
head 10.2602 -1.08817 4.80432
rclavicle 3.05631e-015 2.38542e-015
rhumerus -42.95 -10.1475 -86.5474
rradius 46.8948
rwrist 25.7091
rhand -35.6011 -15.4707
rfingers 7.12502
rthumb -8.72491 -45.2703
lclavicle 3.05631e-015 2.38542e-015
lhumerus -38.9692 -3.70813 88.3552
lradius 34.0074
lwrist -24.0809
lhand -37.556 18.7973
lfingers 7.12502
lthumb -10.611 48.5094
rfemur -0.66188 -14.0506 19.8466
rtibia 13.6725
rfoot -11.7508 -3.24262
rtoes -12.0357
lfemur -8.92283 -9.40243 -16.6269
ltibia 23.7656
lfoot -21.1493 8.29308
ltoes -10.3333
110
root 6.71552 18.2852 -6.55481 -177.031 -7.24588 179.997
lowerback -0.457306 1.12109 -3.44006
upperback 1.72682 1.51766 0.293926
thorax 1.9319 0.690093 2.26001
lowerneck -13.4167 -0.215261 -7.23492
upperneck 24.3902 -2.70201 11.2085
head 10.1879 -1.11661 4.81843
rclavicle -1.16413e-014 8.94531e-016
rhumerus -43.0854 -9.8705 -86.5478
rradius 47.2581
rwrist 25.1721
rhand -35.4765 -15.7837
rfingers 7.12502
rthumb -8.60464 -45.5883
lclavicle -1.16413e-014 8.94531e-016
lhumerus -38.9888 -4.29765 88.1998
lradius 34.5205
lwrist -21.9115
lhand -37.0858 18.5731
lfingers 7.12502
lthumb -10.1574 48.3079
rfemur -0.849669 -13.8536 19.9309
rtibia 13.8566
rfoot -11.6519 -3.21839
rtoes -11.9384
lfemur -9.10799 -9.17707 -16.5289
ltibia 23.9167
lfoot -21.1052 8.12341
ltoes -10.3579
111
root 6.71995 18.2833 -6.5468 -176.974 -7.16708 180.069
lowerback -0.155848 1.11701 -3.3727
upperback 1.75405 1.49735 0.323112
thorax 1.79254 0.681925 2.24549
lowerneck -13.3602 -0.259386 -7.36005
upperneck 24.2334 -2.72014 11.2529
head 10.1242 -1.12809 4.84906
rclavicle -7.33018e-016 1.00386e-014
rhumerus -43.0931 -9.68677 -86.3761
rradius 47.4383
rwrist 25.1282
rhand -35.0877 -15.3984
rfingers 7.12502
rthumb -8.22939 -45.2181
lclavicle -7.33018e-016 1.00386e-014
lhumerus -39.0346 -4.62237 87.9123
lradius 34.6001
lwrist -21.6034
lhand -36.8745 18.5066
lfingers 7.12502
lthumb -9.95354 48.2513
rfemur -1.09241 -13.7798 20.0451
rtibia 14.0834
rfoot -11.6291 -3.28289
rtoes -11.9356
lfemur -9.30889 -9.00543 -16.4136
ltibia 24.0956
lfoot -21.1036 8.01459
ltoes -10.4318
112
root 6.72733 18.2812 -6.5345 -176.913 -7.10877 180.045
lowerback 0.190527 1.13633 -3.41252
upperback 1.81372 1.50713 0.30807
thorax 1.65808 0.686078 2.24547
lowerneck -13.3014 -0.324625 -7.4861
upperneck 23.9813 -2.75714 11.3274
head 10.029 -1.14147 4.88557
rclavicle -1.1865e-014 6.36111e-015
rhumerus -43.1381 -9.5462 -86.2929
rradius 47.7425
rwrist 24.655
rhand -34.9265 -15.6316
rfingers 7.12502
rthumb -8.07387 -45.4573
lclavicle -1.1865e-014 6.36111e-015
lhumerus -38.8926 -4.74191 87.4135
lradius 34.2921
lwrist -22.6462
lhand -36.7027 18.4354
lfingers 7.12502
lthumb -9.78782 48.1879
rfemur -1.39699 -13.6893 20.0762
rtibia 14.3962
rfoot -11.5698 -3.31252
rtoes -11.9239
lfemur -9.54615 -8.79882 -16.385
ltibia 24.287
lfoot -21.072 7.87547
ltoes -10.4101
113
root 6.73081 18.2779 -6.52565 -176.856 -6.98228 180.091
lowerback 0.482618 1.18965 -3.28841
upperback 1.84193 1.56427 0.247288
thorax 1.52401 0.717478 2.10762
lowerneck -13.1932 -0.377389 -7.4393
upperneck 23.8166 -2.8328 11.3445
head 9.95771 -1.17095 4.8676
rclavicle -1.26725e-015 6.16232e-015
rhumerus -43.3023 -9.28213 -86.2666
rradius 47.9065
rwrist 24.358
rhand -34.826 -15.4278
rfingers 7.12502
rthumb -7.97681 -45.2573
lclavicle -1.26725e-015 6.16232e-015
lhumerus -39.0402 -5.69839 87.2371
lradius 34.5076
lwrist -21.5178
lhand -36.5954 18.6687
lfingers 7.12502
lthumb -9.68432 48.4261
rfemur -1.72775 -13.5987 20.1592
rtibia 14.7599
rfoot -11.5579 -3.40474
rtoes -11.8677
lfemur -9.76756 -8.59533 -16.307
ltibia 24.5
lfoot -21.1046 7.80145
ltoes -10.3847
